<?xml version="1.0" encoding="UTF-8" standalone="no"?>
<!-- Created with Inkscape (http://www.inkscape.org/) -->

<svg
   width="21.505495mm"
   height="11.711789mm"
   viewBox="0 0 21.505496 11.71179"
   version="1.1"
   id="svg5"
   xml:space="preserve"
   inkscape:version="1.2.2 (b0a8486541, 2022-12-01)"
   sodipodi:docname="logo-conicet.svg"
   xmlns:inkscape="http://www.inkscape.org/namespaces/inkscape"
   xmlns:sodipodi="http://sodipodi.sourceforge.net/DTD/sodipodi-0.dtd"
   xmlns="http://www.w3.org/2000/svg"
   xmlns:svg="http://www.w3.org/2000/svg"><sodipodi:namedview
     id="namedview7"
     pagecolor="#ffffff"
     bordercolor="#666666"
     borderopacity="1.0"
     inkscape:showpageshadow="2"
     inkscape:pageopacity="0.0"
     inkscape:pagecheckerboard="0"
     inkscape:deskcolor="#d1d1d1"
     inkscape:document-units="mm"
     showgrid="false"
     inkscape:zoom="4.3893396"
     inkscape:cx="77.346487"
     inkscape:cy="52.513595"
     inkscape:window-width="1920"
     inkscape:window-height="1016"
     inkscape:window-x="0"
     inkscape:window-y="0"
     inkscape:window-maximized="1"
     inkscape:current-layer="svg5"><inkscape:page
       x="0"
       y="0"
       width="21.505497"
       height="11.71179"
       id="page208" /><inkscape:page
       x="166.70403"
       y="-92.62027"
       width="22.253937"
       height="21.404442"
       id="page210" /><inkscape:page
       x="198.95796"
       y="-92.62027"
       width="28.204346"
       height="21.323433"
       id="page426" /></sodipodi:namedview><defs
     id="defs2" /><g
     id="g1461"
     transform="translate(-1.1670154,-0.64175524)"><path
       d="M 15.945602,12.350139 C 15.052229,12.308599 14.332243,12.203876 13.523332,11.998902 12.918709,11.844741 12.34327,11.639423 11.845769,11.398056 11.271702,11.118919 11.138829,11.031711 9.6689881,9.9549933 8.1558841,8.8456593 7.6182131,8.4769113 6.8161681,8.0006973 6.2932601,7.6910033 5.5660643,7.3328993 5.1732824,7.1935028 4.1058356,6.8151412 3.1935789,6.6836416 2.5484414,6.8137678 2.0711976,6.9102467 1.6688022,7.154362 1.3992796,7.5124666 1.3642588,7.5581309 1.3333581,7.5890315 1.3309547,7.5797613 1.3240879,7.5595042 1.4514674,7.3222557 1.5506929,7.1667223 1.7158398,6.91162 1.9784956,6.6194369 2.238748,6.4007287 3.3614726,5.4592881 5.1506219,5.078523 6.9167671,5.4057268 c 0.43055,0.080342 0.926677,0.2266051 1.250104,0.3687482 0.674665,0.2976765 1.382634,0.6945786 2.1524039,1.2044398 0.332697,0.2211115 1.164269,0.7992975 1.264868,0.8796395 0.02128,0.01614 0.05218,0.04017 0.06969,0.05253 0.01888,0.01202 0.08034,0.05768 0.139397,0.100256 0.05768,0.04429 0.149009,0.108839 0.201198,0.144889 0.05254,0.03502 0.106092,0.07519 0.119482,0.08721 0.02128,0.02026 0.253385,0.178538 0.362225,0.248236 0.02128,0.01339 0.04532,0.02953 0.05356,0.03468 0.0309,0.02712 0.818181,0.542135 0.960324,0.629343 0.953458,0.58986 1.65765,0.9266777 2.919771,1.3987717 1.255254,0.469347 2.446304,0.654407 3.481476,0.540418 0.106092,-0.01202 0.210469,-0.02404 0.233472,-0.02953 0.03742,-0.0079 0.04017,-0.0065 0.02403,0.02163 -0.03331,0.06283 -0.284286,0.309693 -0.410292,0.404799 -0.607714,0.455957 -1.471216,0.730973 -2.608705,0.831572 -0.244114,0.02164 -0.962727,0.03742 -1.184182,0.02678 z"
       style="fill:#5d95cc;fill-opacity:1;fill-rule:nonzero;stroke:none;stroke-width:0.352778"
       id="path144" /><path
       d="M 21.33983,8.5586263 C 21.008507,8.3670423 20.319078,7.9831873 20.020028,7.8238763 18.366498,6.9452674 17.064207,6.563129 15.84363,6.6005532 c -1.126502,0.03502 -2.153778,0.3862585 -3.239078,1.1079611 l -0.257506,0.17167 -0.216991,-0.04154 c -0.119483,-0.02163 -0.220082,-0.04292 -0.222828,-0.04704 -0.01476,-0.01476 0.659901,-0.6410173 0.961697,-0.8919996 1.027277,-0.8556054 2.112233,-1.4403149 3.17453,-1.7125842 0.580933,-0.14901 1.215083,-0.2132147 1.786402,-0.1809407 0.158281,0.00928 0.308665,0.019914 0.332698,0.02266 0.02403,0.00412 0.134246,0.020257 0.245489,0.036051 0.528401,0.073818 0.976461,0.1864341 1.487352,0.3756149 0.641017,0.2362185 1.404264,0.622477 2.125623,1.0784337 0.27227,0.1702971 0.622478,0.4051423 0.633121,0.4223094 0.0079,0.01339 -1.087703,1.7328415 -1.105214,1.7342155 -0.0038,0 -0.09785,-0.05219 -0.209095,-0.116736 z"
       style="fill:#5d95cc;fill-opacity:1;fill-rule:nonzero;stroke:none;stroke-width:0.352778"
       id="path146" /><path
       d="m 4.3310672,11.975898 c -0.1596535,-0.01339 -0.3608512,-0.04018 -0.3821383,-0.04944 -0.01236,-0.0055 -0.03502,-0.01065 -0.051158,-0.01339 -0.056308,-0.0083 -0.2345019,-0.04978 -0.2533856,-0.05906 -0.00928,-0.0054 -0.026781,-0.0092 -0.037768,-0.0092 -0.010643,0 -0.02266,-0.0055 -0.025408,-0.01099 -0.00378,-0.0052 -0.017511,-0.0092 -0.03193,-0.0092 -0.013733,0 -0.032274,-0.0054 -0.043261,-0.0092 -0.00928,-0.0055 -0.046695,-0.01751 -0.083088,-0.02816 -0.037424,-0.0096 -0.071072,-0.02025 -0.076222,-0.02438 -0.00687,-0.0038 -0.032274,-0.01339 -0.056308,-0.01991 -0.02575,-0.0083 -0.051158,-0.01751 -0.056308,-0.02163 -0.00549,-0.0027 -0.039141,-0.01477 -0.073818,-0.02541 -0.036395,-0.01065 -0.064548,-0.02266 -0.064548,-0.02816 0,-0.0041 -0.00652,-0.0069 -0.01339,-0.0069 -0.00789,0 -0.032274,-0.0092 -0.054934,-0.01991 -0.021631,-0.01065 -0.052188,-0.02301 -0.068325,-0.02678 -0.014763,-0.0041 -0.029527,-0.01099 -0.032274,-0.01614 -0.00412,-0.0054 -0.014763,-0.0096 -0.025408,-0.0096 -0.010643,0 -0.020257,-0.0038 -0.020257,-0.0092 0,-0.0052 -0.00515,-0.01065 -0.01339,-0.01065 -0.018884,0 -0.1421432,-0.06592 -0.226605,-0.119482 C 2.465353,11.33488 2.2442414,11.152566 2.0591807,10.970252 1.344345,10.264687 1.053192,9.4451323 1.2409994,8.6726153 c 0.089955,-0.368748 0.2935565,-0.698699 0.5644524,-0.91466 0.059055,-0.04807 0.1933009,-0.1314996 0.209438,-0.1314996 0.00652,0 -0.00962,0.045664 -0.033647,0.094076 -0.00549,0.0093 -0.00928,0.02815 -0.00928,0.04154 0,0.01202 -0.00412,0.02815 -0.00824,0.03365 -0.00515,0.0051 -0.017167,0.09923 -0.026781,0.207721 -0.019914,0.222829 -0.014764,0.359478 0.025407,0.556556 0.1115906,0.548659 0.4882356,1.107961 1.0461645,1.5505283 0.056308,0.04429 0.1126158,0.08996 0.1249761,0.100599 0.012017,0.0093 0.034678,0.02678 0.050814,0.03605 0.016138,0.01064 0.036051,0.02541 0.044291,0.03502 0.021287,0.02129 0.2399952,0.162057 0.2533854,0.162057 0.00549,0 0.012017,0.0041 0.01339,0.0083 0.00412,0.0092 0.051158,0.03742 0.1112425,0.06558 0.02575,0.01339 0.048411,0.02575 0.051158,0.02953 0.00549,0.0055 0.026781,0.01614 0.1328728,0.06455 0.095105,0.04292 0.1459199,0.06421 0.1836873,0.0776 0.019914,0.0069 0.046695,0.01751 0.061458,0.02301 0.1167359,0.04944 0.3557011,0.130126 0.4964709,0.170297 1.0097655,0.284286 2.0559248,0.252012 3.0845738,-0.09648 0.07382,-0.02438 0.14077,-0.04566 0.150383,-0.04566 0.0093,0 0.01614,-0.0041 0.01614,-0.0096 0,-0.0052 0.01202,-0.01065 0.02678,-0.01065 0.01339,0 0.02541,-0.0041 0.02541,-0.01065 0,-0.0054 0.0079,-0.0092 0.01751,-0.0092 0.01717,0 0.09511,-0.02712 0.16343,-0.05769 0.01751,-0.0083 0.04978,-0.02163 0.07107,-0.0309 0.06043,-0.02575 0.313814,-0.150383 0.319307,-0.155533 0.0027,-0.0041 0.01888,-0.01339 0.03605,-0.02163 0.07245,-0.03605 0.372868,-0.210468 0.483081,-0.280166 l 0.120512,-0.07657 0.249609,0.07897 c 0.13665,0.04429 0.256132,0.08206 0.262656,0.0848 0.01339,0.0038 -0.120513,0.128752 -0.258536,0.238621 -0.412009,0.329951 -1.018005,0.665052 -1.657993,0.918781 -0.816808,0.324457 -1.6198815,0.513637 -2.4366895,0.577843 -0.15313,0.01202 -0.7323461,0.01099 -0.8744892,-0.0014 z"
       style="fill:#5d95cc;fill-opacity:1;fill-rule:nonzero;stroke:none;stroke-width:0.352778"
       id="path148" /><path
       d="m 18.234999,10.86416 c -0.406516,-0.0309 -0.862473,-0.15004 -1.423148,-0.374242 -0.265403,-0.104375 -0.415786,-0.17167 -1.027276,-0.447716 -0.210468,-0.09545 -0.402395,-0.1812837 -0.42643,-0.1919277 -0.04566,-0.01888 -0.192957,-0.109869 -0.340593,-0.211841 -0.379735,-0.258879 -0.744363,-0.553809 -1.17766,-0.951054 -0.187807,-0.171671 -0.476214,-0.446687 -0.473467,-0.450463 0.0014,-0.0014 0.449434,0.261282 0.993972,0.583336 0.545912,0.32171 0.992255,0.584709 0.993629,0.583336 0.0014,-0.0014 -0.235875,-0.473467 -0.528402,-1.047533 -0.292183,-0.575096 -0.529775,-1.0471899 -0.528402,-1.0485633 0.0027,-0.00274 1.461946,1.7568753 1.479456,1.7836563 0.0027,0.0041 0.0065,0.0055 0.0092,0.0041 0.0027,-0.0027 -0.05081,-0.47484 -0.119482,-1.050279 -0.06695,-0.576813 -0.121886,-1.0499366 -0.120513,-1.0526834 0.0014,-0.00274 0.15828,0.4882307 0.349864,1.0904504 0.226948,0.713463 0.351582,1.096974 0.358104,1.098348 0.0069,0.0014 0.06043,-0.261626 0.240339,-1.18693 0.127379,-0.6533774 0.233129,-1.1831524 0.235875,-1.1749123 0.0027,0.00652 0.02163,0.4882308 0.04155,1.0701933 0.04017,1.151909 0.04155,1.184183 0.05356,1.184183 0.0041,0 0.197421,-0.43982 0.428146,-0.976461 0.229352,-0.5362989 0.418189,-0.9709684 0.419563,-0.965475 0.0014,0.00549 -0.108496,0.4748404 -0.242742,1.04204 -0.135276,0.567542 -0.245489,1.032769 -0.244116,1.034142 0.0014,0.0014 0.356731,-0.382138 0.788655,-0.853202 0.431922,-0.47072 0.78728,-0.8542319 0.788653,-0.8528585 0.0014,0.00137 -0.249608,0.4775875 -0.557929,1.0581765 -0.30729,0.581963 -0.556556,1.060923 -0.555182,1.06367 0.0027,0.0041 0.0092,0.0051 0.01339,0.0041 0.0052,-0.0027 0.488231,-0.324801 1.07294,-0.716209 0.58471,-0.391752 1.063671,-0.712433 1.0647,-0.711059 0.0014,0.0014 -0.406172,0.407889 -0.906419,0.90127 -0.61149,0.603593 -0.906764,0.9012697 -0.902644,0.9053897 0.0054,0.0055 0.407546,-0.1218857 1.229847,-0.3876317 0.671918,-0.215962 1.222981,-0.392782 1.224354,-0.391752 0.0014,0.0014 -0.482737,0.279136 -1.075343,0.616983 -0.59295,0.3381907 -1.077061,0.6169837 -1.077061,0.6211037 0.0041,0.01065 0.195704,0.0027 1.197573,-0.05219 0.552435,-0.0309 1.015259,-0.05391 1.030023,-0.05254 0.01751,0.0014 -0.291154,0.08446 -0.940068,0.253728 l -0.965817,0.250639 -0.147294,0.0027 c -0.08068,0.0014 -0.186433,0 -0.233472,-0.0041 z"
       style="fill:#ebbf53;fill-opacity:1;fill-rule:nonzero;stroke:none;stroke-width:0.352778"
       id="path150" /></g><g
     id="g405"
     transform="matrix(0.97324975,0,0,0.97324975,-0.06300343,-12.490398)"
     style="fill:#5d95cc;fill-opacity:1;stroke-width:1.02748"><path
       d="M 2.820635,12.866864 H 2.6442461 l -0.187325,0.275519 C 2.1207239,12.89438 1.9496267,12.833703 1.63001,12.833703 c -0.4409722,0 -0.8212666,0.182033 -1.12994714,0.551391 -0.29774443,0.347134 -0.43532775,0.733072 -0.43532775,1.207206 0,0.997655 0.65581385,1.703211 1.56527489,1.703211 0.7440083,0 1.2181416,-0.435681 1.3229166,-1.207206 L 2.738085,15.0495 c -0.127,0.683683 -0.4797778,1.025525 -1.0473972,1.025525 -0.688975,0 -1.01423606,-0.468489 -1.01423606,-1.460853 0,-0.523522 0.0716139,-0.871008 0.22613055,-1.146528 C 1.0458101,13.208705 1.3322656,13.048897 1.63001,13.048897 c 0.3252611,0 0.6173611,0.170744 0.79375,0.462844 0.088194,0.154517 0.1488722,0.325262 0.2645833,0.688975 h 0.2039056 z"
       style="fill:#5d95cc;fill-opacity:1;fill-rule:nonzero;stroke:none;stroke-width:0.362474"
       id="path166" /><path
       d="m 5.0117376,12.833703 c -0.4134555,0 -0.7662333,0.127 -1.0473971,0.385938 -0.3580695,0.325262 -0.5676194,0.821267 -0.5676194,1.344789 0,0.518231 0.2148416,1.019881 0.5676194,1.339498 0.2758722,0.253647 0.6286499,0.391583 1.0308166,0.391583 0.909461,0 1.5931443,-0.749653 1.5931443,-1.731081 0,-0.97543 -0.6836833,-1.730727 -1.5765638,-1.730727 z m -0.00564,0.215194 c 0.3086805,0 0.5732639,0.143228 0.7387166,0.396875 0.1710972,0.269875 0.2314222,0.551039 0.2314222,1.118658 0,0.557036 -0.060325,0.837848 -0.2314222,1.11372 -0.1654527,0.258939 -0.4243916,0.396875 -0.7496527,0.396875 -0.3305528,0 -0.5898444,-0.132292 -0.7549444,-0.396875 -0.1763889,-0.275872 -0.231775,-0.556684 -0.231775,-1.124656 0,-0.556683 0.060678,-0.832203 0.231775,-1.107722 0.1707444,-0.270228 0.4187472,-0.396875 0.7658805,-0.396875 z"
       style="fill:#5d95cc;fill-opacity:1;fill-rule:nonzero;stroke:none;stroke-width:0.362474"
       id="path168" /><path
       d="M 7.8396042,12.900025 H 6.8860459 v 0.214841 H 7.001757 c 0.2645833,0.01094 0.3527777,0.0441 0.4296833,0.154517 v 1.956506 c 0,0.623005 -0.088194,0.760941 -0.5401028,0.782814 v 0.215194 H 8.2142541 V 16.008703 C 7.7679903,15.98683 7.6797958,15.848894 7.6797958,15.225889 v -1.708503 l 2.0725694,2.77248 H 9.9449818 V 13.89768 c 0,-0.623005 0.088194,-0.755297 0.5404552,-0.782814 V 12.900025 H 9.1625208 v 0.214841 c 0.4409722,0.02752 0.5291666,0.154517 0.5291666,0.782814 v 1.449564 z"
       style="fill:#5d95cc;fill-opacity:1;fill-rule:nonzero;stroke:none;stroke-width:0.362474"
       id="path170" /><path
       d="m 10.756723,13.114866 h 0.09384 c 0.264584,0.0056 0.352778,0.02223 0.391231,0.06632 0.02752,0.0441 0.02752,0.05503 0.02752,0.286455 v 2.188281 c 0,0.231422 0,0.248003 -0.02752,0.286808 -0.03845,0.0441 -0.126647,0.06597 -0.391231,0.06597 h -0.09384 v 0.215194 h 1.538111 V 16.0087 h -0.09384 c -0.258939,0 -0.347134,-0.01658 -0.385939,-0.06597 -0.02752,-0.0388 -0.02752,-0.04974 -0.02752,-0.286808 v -2.188281 c 0,-0.237066 0,-0.242358 0.02752,-0.286455 0.0388,-0.0441 0.121355,-0.06068 0.385939,-0.06632 h 0.09384 v -0.214841 h -1.538111 z"
       style="fill:#5d95cc;fill-opacity:1;fill-rule:nonzero;stroke:none;stroke-width:0.362474"
       id="path172" /><path
       d="m 15.433851,12.866864 h -0.176389 l -0.187325,0.275519 c -0.336197,-0.248003 -0.507294,-0.30868 -0.826911,-0.30868 -0.440972,0 -0.821267,0.182033 -1.129947,0.551391 -0.297745,0.347134 -0.435328,0.733072 -0.435328,1.207206 0,0.997655 0.655814,1.703211 1.565275,1.703211 0.744008,0 1.218142,-0.435681 1.322917,-1.207206 l -0.214842,-0.0388 c -0.127,0.683683 -0.479778,1.025525 -1.047397,1.025525 -0.688975,0 -1.014236,-0.468489 -1.014236,-1.460853 0,-0.523522 0.07161,-0.871008 0.225778,-1.146528 0.14358,-0.258939 0.430036,-0.418747 0.72778,-0.418747 0.325261,0 0.617361,0.170744 0.79375,0.462844 0.08819,0.154517 0.148872,0.325262 0.264583,0.688975 h 0.203906 z"
       style="fill:#5d95cc;fill-opacity:1;fill-rule:nonzero;stroke:none;stroke-width:0.362474"
       id="path174" /><path
       d="m 18.741142,12.900025 h -2.78906 v 0.214841 h 0.08819 c 0.264583,0.0056 0.352778,0.02223 0.385586,0.06632 0.02787,0.0441 0.02787,0.04939 0.02787,0.286455 v 2.188281 c 0,0.237066 0,0.248003 -0.02787,0.286808 -0.03281,0.0441 -0.121003,0.06597 -0.385586,0.06597 h -0.08819 v 0.215194 h 2.849738 l 0.09349,-1.229431 H 18.691405 C 18.515016,15.81573 18.327691,15.986827 17.616844,16.0087 H 17.30781 c -0.275519,-0.01094 -0.347133,-0.05503 -0.330552,-0.220487 v -1.174044 h 0.08819 c 0.479425,-0.02187 0.650522,0.148872 0.672395,0.661458 h 0.215194 v -1.510241 h -0.215194 c -0.02752,0.451908 -0.209198,0.633941 -0.65017,0.633941 h -0.110419 v -1.053041 c -0.0056,-0.19297 0.03845,-0.225778 0.2921,-0.231423 h 0.237066 c 0.766234,0 0.953559,0.165453 1.102431,0.959203 h 0.198261 z"
       style="fill:#5d95cc;fill-opacity:1;fill-rule:nonzero;stroke:none;stroke-width:0.362474"
       id="path176" /><path
       d="m 22.089709,12.900025 h -2.778125 l -0.07161,1.278819 h 0.198614 c 0.03281,-0.22613 0.07161,-0.402519 0.126647,-0.551391 0.121356,-0.341842 0.341842,-0.512587 0.661459,-0.512587 0.148872,0 0.214841,0.05503 0.214841,0.165453 v 2.375606 c 0,0.237066 0,0.248003 -0.02752,0.286808 -0.03845,0.0441 -0.126648,0.06597 -0.391231,0.06597 h -0.121355 v 0.215194 h 1.593144 v -0.215194 h -0.121356 c -0.258939,0 -0.347133,-0.02187 -0.385939,-0.06597 -0.02752,-0.0388 -0.02752,-0.04974 -0.02752,-0.286808 v -2.375606 c 0,-0.110419 0.06632,-0.165453 0.220486,-0.165453 0.281164,0 0.512586,0.159809 0.628297,0.435328 0.06632,0.171097 0.115711,0.369359 0.148872,0.62865 h 0.203906 z"
       style="fill:#5d95cc;fill-opacity:1;fill-rule:nonzero;stroke:none;stroke-width:0.362474"
       id="path178" /></g><g
     inkscape:label="Capa 1"
     inkscape:groupmode="layer"
     id="layer1"
     transform="translate(-53.295975,-92.62027)" /></svg>
