<?xml version="1.0" encoding="UTF-8" standalone="no"?>
<!-- Created with Inkscape (http://www.inkscape.org/) -->

<svg
   width="28.34164mm"
   height="7.157424mm"
   viewBox="0 0 28.34164 7.157424"
   version="1.1"
   id="svg5"
   inkscape:version="1.2.2 (b0a8486541, 2022-12-01)"
   xml:space="preserve"
   sodipodi:docname="logo-utn.svg"
   xmlns:inkscape="http://www.inkscape.org/namespaces/inkscape"
   xmlns:sodipodi="http://sodipodi.sourceforge.net/DTD/sodipodi-0.dtd"
   xmlns="http://www.w3.org/2000/svg"
   xmlns:svg="http://www.w3.org/2000/svg"><sodipodi:namedview
     id="namedview7"
     pagecolor="#ffffff"
     bordercolor="#666666"
     borderopacity="1.0"
     inkscape:showpageshadow="2"
     inkscape:pageopacity="0.0"
     inkscape:pagecheckerboard="0"
     inkscape:deskcolor="#d1d1d1"
     inkscape:document-units="mm"
     showgrid="false"
     inkscape:zoom="6.2074635"
     inkscape:cx="74.829276"
     inkscape:cy="26.339261"
     inkscape:window-width="1920"
     inkscape:window-height="1016"
     inkscape:window-x="0"
     inkscape:window-y="0"
     inkscape:window-maximized="1"
     inkscape:current-layer="layer1"
     showguides="true"><sodipodi:guide
       position="57.496016,-8.761402"
       orientation="0,-1"
       id="guide5696"
       inkscape:locked="false" /><sodipodi:guide
       position="59.797679,-15.922132"
       orientation="0,-1"
       id="guide5698"
       inkscape:locked="false" /></sodipodi:namedview><defs
     id="defs2"><rect
       x="282.76947"
       y="391.26288"
       width="275.78696"
       height="146.2856"
       id="rect236" /></defs><g
     inkscape:label="Capa 1"
     inkscape:groupmode="layer"
     id="layer1"
     transform="translate(-28.94428,-89.531514)"><g
       inkscape:label="Capa 1"
       id="layer1-5"
       transform="translate(12.142896,31.900608)" /><g
       inkscape:label="Capa 1"
       id="layer1-52"
       transform="translate(26.325915,-18.843609)" /><text
       xml:space="preserve"
       transform="matrix(0.26458333,0,0,0.26458333,-37.858643,-15.919222)"
       id="text234"
       style="font-size:37.3333px;line-height:1.25;font-family:'Iwona Light';-inkscape-font-specification:'Iwona Light, ';white-space:pre;shape-inside:url(#rect236);display:inline;fill:#000000;fill-opacity:1"><tspan
         x="282.76953"
         y="425.23232"
         id="tspan2716"><tspan
           style="font-weight:bold;font-family:'Noto Sans';-inkscape-font-specification:'Noto Sans Bold'"
           id="tspan2714">UTN</tspan></tspan></text><path
       d="m 31.455777,89.550378 h 1.039032 v 1.94331 c 0.822553,-0.22783 1.429804,-0.98474 1.429804,-1.8779 h 1.082635 c 0,1.49214 -1.087703,2.78354 -2.511496,3.03117 h 2.382221 v 1.06123 h -2.18389 c 1.32398,0.32412 2.311868,1.52301 2.311868,2.94478 h -1.081338 c 0,-0.89316 -0.607251,-1.65007 -1.428861,-1.87801 v 1.89958 h -1.039033 v -1.89958 c -0.82161,0.22794 -1.428861,0.98485 -1.428861,1.87801 H 28.94428 c 0,-1.42177 0.987888,-2.62066 2.31175,-2.94478 h -2.181532 v -1.06123 h 2.382221 c -1.424736,-0.24763 -2.512439,-1.53903 -2.512439,-3.03117 h 1.082753 c 0,0.89316 0.606662,1.65007 1.428744,1.8779 z"
       style="fill:#000000;fill-opacity:1;fill-rule:evenodd;stroke:none;stroke-width:0.35278"
       id="path412" /><g
       id="g414"
       transform="matrix(0.11389639,0,0,0.11391337,29.735234,89.668628)"
       style="fill:#000000;fill-opacity:1;stroke-width:3.09712;stroke:#000000;stroke-opacity:1"><path
         d="M 58.535,0.602 V 59.691"
         style="fill:#000000;fill-opacity:1;stroke:#000000;stroke-width:3.61134;stroke-linecap:round;stroke-linejoin:miter;stroke-miterlimit:4;stroke-dasharray:none;stroke-opacity:1"
         id="path416" /></g></g></svg>
